# xmcd
#
# Track frame offsets:
#	150
#	13655
#	31672
#	47950
#	58985
#	68157
#	81848
#	100001
#	106899
#	121260
#	134960
#	139891
#
# Disc length: 2026 seconds
#
# Revision: 0
# Processed by: cddbd v1.5.2PL0 Copyright (c) Steve Scherf et al.
# Submitted via: EasyCDDAExtractor 16.0.6.1
#
DISCID=aa07e80c
DTITLE=Συλλογικός δίσκος - Νησιώτικα-Victory 3
DYEAR=2003
DGENRE=Παραδοσιακή
TTITLE0=Μάγκελ Έλενα - Θάλασσα απ' όλα τα νερά [παραδοσιακό]
TTITLE1=Κονδύλης Μάνος - Σάλα σάλα [παραδοσιακό]
TTITLE2=Κουκουλάρη Νίκη - Θαλασσάκι μου [παραδοσιακό]
TTITLE3=Μάγκελ Έλενα - Στο μπαξέ της Αφροδίτης [παραδοσιακό]
TTITLE4=Κουκουλάρη Νίκη - Η τράτα [παραδοσιακό]
TTITLE5=Κορρέ Λέττα - Μέσ' του Αιγαίου τα νερά [παραδοσιακό]
TTITLE6=Κουκουλάρη Νίκη - Καλέ συ Παναγιά μου [παραδοσιακό]
TTITLE7=Μάγκελ Έλενα - Λεμονάκι μυρωδάτο [παραδοσιακό]
TTITLE8=Γραμματικός Σταύρος - Μού τό 'πανε δυό πέρδικες [παραδοσιακό]
TTITLE9=Χατζηδάκη Αιμιλία - Ω! Παναγιά Γαλατζανή [παραδοσιακό]
TTITLE10=Μάγκελ Έλενα - Στης ακρίβειας τον καιρό [παραδοσιακό]
TTITLE11=Άνευ ερμηνευτού - Νησιώτικο οργανικό [παραδοσιακό]
EXTD=
EXTT0=
EXTT1=
EXTT2=
EXTT3=
EXTT4=
EXTT5=
EXTT6=
EXTT7=
EXTT8=
EXTT9=
EXTT10=
EXTT11=
PLAYORDER=
